<svg width="311" height="98" viewBox="0 0 311 98" fill="none" xmlns="http://www.w3.org/2000/svg">
<path fill-rule="evenodd" clip-rule="evenodd" d="M24.0461 71.0469L24.0468 71.0498L24.0475 71.0525C24.3396 70.8712 24.626 70.6934 24.9083 70.518L24.9247 70.5079L24.9271 70.5063C25.6416 70.0626 26.3301 69.635 27.0199 69.2095C27.3337 69.016 27.2651 68.7555 27.1933 68.4829L27.1811 68.4363C26.6247 66.2877 26.0701 64.1386 25.5156 61.9895L24.9027 59.6143C24.8418 59.3784 24.7822 59.1421 24.7226 58.9058L24.7226 58.9058C24.5684 58.2946 24.4143 57.6834 24.2376 57.0788C24.1306 56.7129 24.1864 56.4455 24.4532 56.1782C24.7263 55.9047 24.9919 55.6238 25.2576 55.3429C25.5072 55.079 25.7568 54.8151 26.0126 54.5572C26.3102 54.2571 26.3385 53.9697 26.1109 53.612C24.2829 50.7383 23.0197 47.6286 22.2616 44.312C22.1842 43.9736 22.0005 43.8099 21.6818 43.6653C18.5594 42.2487 17.1158 38.1522 18.6669 35.1415C18.8178 34.8486 18.9927 34.5392 19.2356 34.3287C19.6645 33.9569 19.7556 33.555 19.6508 33.011C19.145 30.3855 19.1599 27.7299 19.1749 25.0761V25.076V25.0758V25.0757V25.0755V25.0753V25.0752V25.075V25.0749V25.0747C19.1773 24.6486 19.1797 24.2225 19.1799 23.7966C19.1803 23.1258 19.1749 22.4549 19.1696 21.784V21.7839V21.7838V21.7837V21.7835V21.7834V21.7833V21.7832V21.7831V21.783V21.7829V21.7829V21.7829V21.7828V21.7828V21.7827V21.7827V21.7826V21.7826C19.1535 19.7667 19.1374 17.7505 19.2766 15.7382C19.5004 12.5044 20.7847 9.7141 22.9414 7.31313C24.9516 5.07519 27.3785 3.42503 30.1308 2.23831C30.1567 2.22716 30.1825 2.21502 30.2087 2.20272C30.3691 2.12745 30.5427 2.04591 30.8166 2.14446V6.87983C31.0194 6.77486 31.211 6.67645 31.3946 6.58216C31.8189 6.36428 32.2002 6.16844 32.5773 5.96468C32.7914 5.84899 32.7873 5.63786 32.7834 5.43741V5.43731V5.43721V5.43712C32.7828 5.4072 32.7823 5.37752 32.7824 5.34843C32.7839 5.08698 32.7861 4.8255 32.7883 4.56401V4.56395V4.56389V4.56383V4.56377V4.56371V4.56365V4.56359V4.56353V4.56346C32.7958 3.65844 32.8034 2.75333 32.7811 1.84899C32.7683 1.33368 32.9278 1.05515 33.4399 0.89115C36.1181 0.0334383 38.8478 -0.166519 41.6338 0.126747C42.7568 0.24496 43.8443 0.500877 44.935 0.770531C45.5055 0.9116 45.7626 1.17189 45.7321 1.80698C45.6981 2.51331 45.7025 3.22136 45.7069 3.92956V3.92961V3.92966V3.92971V3.92976V3.92981V3.92986V3.92992V3.92997V3.93002C45.7097 4.3887 45.7126 4.84745 45.705 5.30584C45.6986 5.69204 45.8258 5.91222 46.1959 6.06066C46.5113 6.18717 46.8127 6.34872 47.1315 6.51962C47.274 6.59602 47.42 6.67429 47.5723 6.75213C47.6705 6.25151 47.6615 5.77772 47.6526 5.31415V5.31405V5.31394V5.31384V5.31373V5.31363V5.31353V5.31343V5.31334V5.31324C47.6489 5.11453 47.6451 4.91769 47.6499 4.72143C47.6623 4.21096 47.6633 3.7002 47.6643 3.18946V3.18894C47.6647 2.9707 47.6652 2.75245 47.6665 2.53422C47.6691 2.10054 47.7956 1.91636 48.2738 2.12662C52.4004 3.94099 55.7532 6.62049 57.873 10.6804C58.9181 12.682 59.2809 14.8535 59.3056 17.0768C59.3479 20.8886 59.3483 24.7013 59.3237 28.5134C59.3143 29.9882 59.1606 31.4601 58.8899 32.9136C58.8002 33.3951 58.8763 33.7567 59.2377 34.1465C60.9123 35.9526 61.0306 38.9186 59.5426 41.2296C58.8324 42.3326 57.9477 43.2673 56.6765 43.7302C56.3593 43.8457 56.3135 44.092 56.2692 44.3304C56.2631 44.363 56.2571 44.3955 56.2504 44.4275C55.7949 46.6001 55.0287 48.6609 54.0619 50.6529C53.9258 50.9334 53.7381 51.0916 53.4237 51.1793C50.8398 51.8999 49.3566 53.8388 49.3209 56.5407C49.3153 56.9597 49.2382 57.2973 48.9098 57.5943C46.8736 59.4355 44.7351 61.1119 42.0676 61.96C39.3607 62.8206 36.8032 62.3433 34.3502 61.059C32.6801 60.1846 31.1837 59.0613 29.7981 57.7855C29.7563 57.747 29.7157 57.6997 29.6742 57.6515C29.5325 57.4867 29.3809 57.3105 29.1409 57.4344C28.9333 57.5415 28.9842 57.7257 29.0344 57.9078C29.0544 57.98 29.0742 58.0518 29.0778 58.1184C29.0905 58.3517 29.1055 58.5848 29.1205 58.818L29.1206 58.8184L29.1206 58.8186C29.1523 59.3121 29.1841 59.8057 29.1938 60.2997C29.2029 60.7609 29.3572 61.1448 29.6163 61.5127C30.0577 62.1394 30.4967 62.7677 30.9357 63.3961L30.936 63.3965L30.9362 63.3967L30.9364 63.397L30.9366 63.3973L30.9368 63.3976L30.937 63.3978L30.9372 63.3981L30.9374 63.3984L30.9376 63.3987L30.9378 63.3989C31.7028 64.4939 32.4678 65.5888 33.2451 66.675C33.496 67.0257 33.528 67.2941 33.2197 67.5959C33.1858 67.6291 33.1585 67.6695 33.1312 67.7098C33.0993 67.7569 33.0676 67.8039 33.0255 67.839C32.2244 68.5053 32.1194 69.2054 32.5454 70.2167C33.3953 72.2342 34.174 74.2817 34.9527 76.3291L34.9529 76.3298C35.2692 77.1613 35.5854 77.9929 35.9065 78.8224C35.9396 78.9079 35.9791 78.991 36.0351 79.1083C36.067 79.1752 36.1042 79.2532 36.1485 79.3492C36.1811 79.2202 36.214 79.1051 36.2443 78.9988L36.2443 78.9988C36.303 78.7935 36.3521 78.6214 36.3715 78.446C36.4687 77.5651 36.5622 76.6839 36.6557 75.8026L36.6557 75.8021L36.6558 75.8015L36.6558 75.8009L36.6559 75.8004L36.6559 75.7998L36.656 75.7992L36.6561 75.7986L36.6561 75.7981L36.6562 75.7975L36.6563 75.7964C36.7861 74.5726 36.9158 73.3488 37.0556 72.1262C37.0912 71.8149 36.9716 71.6022 36.8078 71.3877L36.771 71.3397C36.265 70.6773 35.7589 70.0148 35.2383 69.364C34.9984 69.064 35.0207 68.8209 35.275 68.5418C36.0606 67.6801 36.838 66.8106 37.605 65.9323C37.8585 65.6421 38.1414 65.516 38.5311 65.5298C39.0921 65.5496 39.6558 65.531 40.2166 65.4982C40.4975 65.4818 40.6927 65.5782 40.8712 65.7783L40.918 65.8308C41.7064 66.7148 42.4949 67.5989 43.2955 68.4718C43.5805 68.7826 43.6113 69.0486 43.3291 69.3883C43.0233 69.7563 42.7304 70.1349 42.4374 70.5135C42.221 70.7931 42.0046 71.0727 41.7831 71.3481C41.5313 71.6611 41.4476 71.9969 41.4949 72.394C41.7458 74.4961 41.987 76.5994 42.2252 78.703C42.2279 78.7264 42.2303 78.7498 42.2328 78.7732C42.2558 78.9928 42.279 79.2142 42.4699 79.4608C42.6334 79.0428 42.7946 78.6299 42.9544 78.2207L42.9553 78.2185C43.3094 77.3116 43.6568 76.4223 44.0061 75.5337C44.1968 75.0487 44.3861 74.5631 44.5754 74.0775C45.1118 72.7013 45.6482 71.325 46.2172 69.9624C46.5003 69.2842 46.4495 68.7775 45.9546 68.2136C45.082 67.2191 45.1054 67.1852 45.8453 66.114L45.8646 66.0861C46.598 65.024 47.3306 63.9613 48.0725 62.8851L48.0914 62.8577L48.0984 62.8475L49.0818 61.4212C49.2708 61.6237 49.2515 61.8378 49.2335 62.0371C49.2283 62.0944 49.2233 62.1504 49.2233 62.2046C49.2262 70.5726 49.2241 78.9406 49.2219 87.3086L49.2208 92.0156C49.2207 92.3303 49.2218 92.645 49.2228 92.9597C49.2243 93.395 49.2258 93.8302 49.2242 94.2655C49.2213 95.1 49.2184 95.1031 48.3982 95.1026C46.632 95.1014 44.8658 95.0995 43.0996 95.0976C40.1786 95.0944 37.2576 95.0912 34.3366 95.0916C26.9612 95.0925 19.5859 95.0954 12.2106 95.0983C8.62829 95.0996 5.04599 95.101 1.46369 95.1022C0.211888 95.1026 0.177365 95.1009 0.205399 93.8232C0.253013 91.6534 0.241959 89.4827 0.230907 87.3124C0.217135 84.6077 0.203364 81.9035 0.303149 79.2023C0.48761 74.2088 2.48523 70.04 6.70871 67.1621C8.14644 66.1824 9.71013 65.415 11.273 64.648C11.8441 64.3677 12.4152 64.0874 12.9799 63.7969C15.3867 62.5586 17.8075 61.3472 20.2316 60.1431C20.3358 60.0913 20.4293 60.0429 20.5133 59.9994C21.2041 59.6417 21.2635 59.611 21.4858 60.7152C21.5004 60.7878 21.5188 60.8595 21.5389 60.9379L21.5389 60.938C21.5583 61.0135 21.5792 61.0952 21.5999 61.1896C22.4099 64.4732 23.2144 67.7055 24.0412 71.0273L24.0414 71.0282L24.0441 71.0389L24.0461 71.0469ZM38.671 56.7852C40.9863 56.9149 43.0138 56.1557 44.8028 54.737C47.6588 52.4721 49.5535 49.5213 50.7456 46.1151C52.358 41.5078 52.9278 36.7408 52.7761 31.8768C52.7748 31.8365 52.7762 31.7952 52.7777 31.7536C52.7834 31.5897 52.7893 31.4203 52.6316 31.2866C52.4047 31.2492 52.2271 31.3584 52.0505 31.4669C51.9998 31.4981 51.9492 31.5292 51.8976 31.5568C47.9262 33.6774 43.7481 34.1958 39.3863 33.1155C36.1093 32.3039 33.2645 30.6534 30.7269 28.4572C30.3751 28.1527 30.0722 28.0961 29.6654 28.3056C28.7556 28.7742 27.8394 29.2306 26.9232 29.6869L26.9227 29.6872C26.7029 29.7967 26.4831 29.9061 26.2634 30.0158C26.0267 30.1339 25.8573 30.2781 25.8454 30.5769C25.8346 30.8505 25.8139 31.124 25.7931 31.3973C25.7651 31.7673 25.7371 32.1371 25.7335 32.5072C25.708 35.1313 25.8969 37.7405 26.3537 40.3266C26.9466 43.6836 27.8281 46.9522 29.6244 49.8888C31.718 53.3117 34.3486 56.0799 38.671 56.7852ZM49.5966 22.9606C52.0718 24.0126 54.3247 25.4567 56.5766 27.0065C56.9654 25.0651 56.519 23.4877 55.1265 22.171C53.7232 20.8442 52.0585 19.9581 50.3028 19.2276C45.337 17.1616 40.1682 16.6975 34.8787 17.4002C31.804 17.8087 28.861 18.6919 26.14 20.2156C24.4336 21.1711 22.8288 22.2593 22.0195 24.152C21.617 25.0935 21.6686 26.0754 21.8506 27.1943C30.3664 20.7286 39.509 18.9647 49.5966 22.9606ZM41.0208 12.4931C42.3218 11.7043 43.0047 10.5799 42.9081 9.02869C42.8175 7.57427 42.0494 6.57742 40.7679 5.98068C39.3929 5.34037 38.0627 5.5425 36.9133 6.49004C35.8233 7.38866 35.3855 8.59771 35.6772 10.0069C36.1833 12.452 38.8964 13.5876 41.0208 12.4931ZM51.3188 15.8516L53.1296 16.8192C53.2837 16.2649 53.2771 15.7376 53.2707 15.2216C53.268 15.006 53.2653 14.7924 53.2744 14.5796C53.3769 12.1769 53.1985 9.80369 52.5001 7.48866C52.4814 7.42677 52.4672 7.36104 52.4529 7.29483C52.4083 7.08865 52.3627 6.87768 52.178 6.7627C51.6901 6.45899 51.1914 6.17268 50.6979 5.88938C50.5042 5.77813 50.3112 5.66735 50.12 5.55616C49.7757 5.89314 49.8091 6.22218 49.9327 6.57997C50.2446 7.48303 50.5468 8.3885 50.7282 9.33103C51.0189 10.8411 50.9965 12.3627 50.9741 13.8843C50.9681 14.2943 50.962 14.7043 50.9621 15.114C50.9621 15.1428 50.9615 15.1717 50.9609 15.2007C50.9557 15.444 50.9505 15.6874 51.3188 15.8516ZM27.5181 11.6249C27.5891 10.1014 27.8486 8.61348 28.3977 7.18669C28.6098 6.63538 28.488 6.19019 28.0743 5.74793L27.7182 5.96969C27.3869 6.17603 27.0633 6.37749 26.7401 6.5795C26.6881 6.612 26.637 6.64601 26.586 6.68001L26.5859 6.68004L26.5858 6.68014C26.5504 6.70369 26.515 6.72723 26.4794 6.75029C26.3097 6.85991 26.2476 7.03341 26.185 7.20862L26.1849 7.20897L26.1848 7.20912L26.1848 7.20928C26.1773 7.23005 26.1699 7.25084 26.1623 7.27155C25.0949 10.1704 25.1575 13.1858 25.2403 16.2031C25.2417 16.2553 25.2549 16.3075 25.2679 16.3591L25.2679 16.3591L25.2747 16.3864C25.3556 16.7173 25.5239 16.8526 25.8571 16.6598C25.9449 16.609 26.0323 16.5574 26.1197 16.5058C26.4269 16.3247 26.7344 16.1432 27.0571 15.9958C27.4357 15.8229 27.5477 15.5763 27.5442 15.1665C27.5411 14.7928 27.5202 14.4193 27.4991 14.0416V14.0416V14.0416V14.0416V14.0416V14.0415V14.0415V14.0415V14.0415V14.0414C27.4556 13.2651 27.4112 12.4715 27.5181 11.6249ZM40.6614 28.6605C43.1357 29.1708 45.5503 29.036 47.8915 28.0286C45.9775 27.8117 44.0692 27.58 42.1613 27.3483C40.4294 27.138 38.6978 26.9277 36.9625 26.7286C37.9946 27.7339 39.2214 28.2974 40.6614 28.6605ZM54.9921 78L54.9813 81.6329C54.9715 84.9996 54.9617 88.3414 54.9503 91.6832C54.9467 92.7311 55.4197 93.2194 56.4581 93.2193C65.6437 93.218 74.8292 93.2166 84.0147 93.2142C85.2899 93.2139 85.6005 92.9054 85.6007 91.6319C85.6022 80.9434 85.6024 70.2548 85.6027 59.5662L85.6027 58.2017V58.1846C85.6027 58.0029 85.6027 57.8209 85.5949 57.6394C85.5568 56.7509 85.0963 56.358 84.218 56.4608C84.1394 56.47 84.0607 56.4789 83.9579 56.4904L83.7639 56.5123C83.7091 56.1036 83.7231 55.6985 83.7369 55.2968C83.7517 54.8704 83.7662 54.4479 83.6982 54.0296C83.6175 53.5342 83.392 53.095 83.1546 52.6325C83.007 52.3452 82.8549 52.0489 82.73 51.7245C83.2877 51.7331 83.8284 51.7068 84.3573 51.6812C85.3396 51.6335 86.2814 51.5879 87.2169 51.7709C88.9914 52.1181 90.1647 53.6783 90.1652 55.5978C90.1673 64.7044 90.1674 73.811 90.1674 82.9176L90.1675 91.0902C90.1675 91.3609 90.1629 91.6318 90.1583 91.9028C90.1484 92.4867 90.1385 93.0706 90.1747 93.6516C90.3136 95.8753 88.5125 97.8904 85.925 97.8867C81.1028 97.8799 76.2806 97.8821 71.4584 97.8842C69.3446 97.8852 67.2309 97.8861 65.1172 97.8863C64.2844 97.8864 63.4516 97.8867 62.6188 97.887C59.994 97.888 57.3693 97.889 54.7445 97.8823C52.7946 97.8773 51.306 96.8821 50.7119 95.2063C50.5293 94.6911 50.4811 94.1514 50.4808 93.6076L50.475 84.8361C50.4684 75.096 50.4619 65.3559 50.4602 55.6158C50.4598 53.1679 51.8955 51.7352 54.3296 51.7026C54.9002 51.695 55.4708 51.6828 56.0414 51.6706L56.0429 51.6706C56.5747 51.6592 57.1066 51.6479 57.6385 51.6402C57.6604 51.6399 57.6825 51.6392 57.7047 51.6385C57.9085 51.6321 58.1292 51.6251 58.3797 51.9012C57.2357 53.1812 56.9544 54.7525 57.208 56.3995C56.9762 56.5724 56.7809 56.517 56.5962 56.4647C56.5194 56.4429 56.4445 56.4216 56.3695 56.4175C55.4581 56.3673 55.0309 56.7171 55.0263 57.63C55.011 60.6106 55.007 63.5913 55.0029 66.572L55.0007 68.1899C54.9974 70.3948 54.9959 72.5996 54.9944 74.8241V74.8314C54.9937 75.8825 54.993 76.9381 54.9921 78ZM65.4638 77L65.3583 77.1109C64.7573 77.7364 64.1593 78.3578 63.5635 78.977L63.5579 78.9827L63.5535 78.9874C62.3631 80.2245 61.1817 81.4521 60.0038 82.683C59.8186 82.8765 59.6251 83.0919 59.527 83.3341C58.7927 85.147 58.1702 87.0003 57.5915 88.8679C57.5 89.1631 57.4411 89.5014 57.7453 89.7311C58.028 89.9444 58.3114 89.8142 58.5804 89.6906L58.6278 89.6689C59.0865 89.4601 59.5432 89.2466 59.9999 89.0331L60 89.0331L60.0001 89.0331L60.0003 89.033L60.0004 89.033L60.0005 89.0329L60.0006 89.0329L60.0008 89.0328L60.0009 89.0328C60.9587 88.5851 61.9165 88.1375 62.8923 87.7334C63.8319 87.3444 64.5618 86.7556 65.1833 85.9704C65.6782 85.3452 66.2084 84.7474 66.7382 84.15C66.8303 84.0462 66.9224 83.9424 67.0143 83.8384C67.3953 83.4073 67.7762 82.9761 68.1571 82.5448C69.9397 80.5264 71.7224 78.508 73.5229 76.5056C73.6944 76.3148 73.8615 76.1193 74.0303 75.9218L74.0303 75.9217C74.524 75.3439 75.0319 74.7496 75.7066 74.21C75.8159 74.3321 75.9213 74.453 76.0249 74.5719L76.025 74.5721L76.0251 74.5722L76.0257 74.5728C76.2619 74.8438 76.4892 75.1047 76.7344 75.3473C76.9898 75.6 76.9605 75.7903 76.7322 76.031C76.3025 76.484 75.8855 76.9493 75.4713 77.4167C74.9654 77.9876 74.9638 78.7815 75.458 79.2691C75.9421 79.7468 76.7544 79.7993 77.2766 79.2988C78.2445 78.371 79.1177 77.3534 79.9905 76.3363C80.1344 76.1685 80.2783 76.0008 80.4227 75.8335C80.6182 75.6069 80.7078 75.3476 80.5195 75.0947C80.2213 74.6943 80.4024 74.4362 80.6975 74.142C82.2719 72.5722 83.1507 70.7275 83.0523 68.4429C82.9357 65.7394 81.6942 63.7064 79.3325 62.5128C76.9982 61.333 74.6085 61.4848 72.4115 63.0009C71.5313 63.6083 70.834 64.4245 70.3284 65.377C69.9768 66.0394 70.1438 66.8142 70.6702 67.1674C71.2272 67.5411 72.031 67.4045 72.5272 66.8358C72.6418 66.7046 72.7393 66.5585 72.8369 66.4125C72.8784 66.3505 72.9198 66.2885 72.9625 66.2276C74.0884 64.6236 76.3047 64.0759 78.0123 65.0163C79.428 65.7959 80.2502 67.0053 80.3212 68.6332C80.3948 70.3201 79.5121 71.5523 78.269 72.5767C78.0879 72.7259 77.9509 72.6759 77.7818 72.5284L77.7702 72.5183L77.7701 72.5182C77.2188 72.0374 76.9449 71.7984 76.9349 71.5489C76.9249 71.3024 77.1723 71.0456 77.6639 70.5353L77.6641 70.5351L77.6646 70.5346C78.816 69.3394 78.6038 67.9213 77.1453 67.0636C76.3982 66.6242 75.6475 66.7345 75.0692 67.3759C74.8766 67.5896 74.687 67.8059 74.4974 68.0223C74.344 68.1974 74.1905 68.3725 74.0354 68.5462C73.9119 68.6846 73.8024 68.7858 73.5623 68.7467C72.2734 68.5365 71.6131 69.029 71.4882 70.3065C71.4542 70.6538 71.2962 70.8776 71.0758 71.1082C69.2125 73.0577 67.3541 75.0121 65.4668 76.9969L65.4638 77ZM76.158 50.0172C76.1544 51.644 76.1547 51.6573 77.7598 51.6175C79.3218 51.5787 80.6675 52.0038 81.4716 53.4378C82.8494 55.8951 81.1616 58.64 78.2591 58.6576C75.373 58.6751 72.4867 58.6719 69.6004 58.6688C68.385 58.6675 67.1696 58.6662 65.9542 58.6664L65.2392 58.6666C64.3949 58.667 63.5505 58.6674 62.7062 58.665C60.6046 58.6592 59.1061 57.3123 59.0481 55.3802C58.9856 53.2997 60.4355 51.7456 62.5658 51.6243C63.0225 51.5983 63.483 51.5928 63.9393 51.62C64.4617 51.6512 64.6425 51.4414 64.6054 50.9235C64.485 49.2396 64.8587 47.6789 65.9871 46.3891C67.5719 44.5777 69.5921 43.9382 71.9003 44.5813C74.1696 45.2136 75.6092 46.7217 76.0407 49.0949C76.0826 49.3252 76.108 49.5586 76.1366 49.8219L76.1492 49.9378L76.158 50.0172ZM70.8072 49.1076C70.0179 48.977 69.5436 49.1578 69.2048 49.7421C68.8829 50.2972 68.8917 50.8485 69.2718 51.3793C69.6553 51.9147 70.1762 52.1042 70.8051 51.9398C71.4148 51.7803 71.7485 51.3427 71.8307 50.736C71.9279 50.019 71.626 49.5349 70.8072 49.1076ZM72.3025 83.8237C71.1039 83.7932 70.1419 83.9854 69.4723 85.0994C69.1142 85.544 68.739 85.9662 68.3627 86.3896L68.3627 86.3896L68.3626 86.3896L68.3626 86.3897L68.3625 86.3897L68.3625 86.3898L68.3625 86.3898C67.7928 87.0309 67.2208 87.6745 66.7021 88.4026C66.7955 88.4237 66.8675 88.4427 66.9262 88.4582L66.9263 88.4582C67.0234 88.4838 67.0842 88.4998 67.1451 88.4999C69.0515 88.5022 70.958 88.5036 72.8645 88.505C75.8928 88.5072 78.921 88.5095 81.9492 88.5152C82.3448 88.5159 82.4357 88.3365 82.4303 87.9771L82.4275 87.7931C82.411 86.7093 82.3945 85.6243 82.4356 84.5421C82.4568 83.9833 82.2813 83.8351 81.7341 83.8392L81.2354 83.8431L80.5697 83.8485C77.8136 83.8712 75.0567 83.8938 72.3025 83.8237ZM57.8618 63.6565C57.8594 62.9815 57.8583 62.6907 58.0012 62.5691C58.1094 62.4771 58.3001 62.4821 58.6352 62.4908H58.6352H58.6354H58.6355H58.6357C58.7612 62.4941 58.9069 62.4979 59.0761 62.4973C61.8256 62.4879 64.5751 62.4873 67.3247 62.4868L69.3778 62.4863C69.4132 62.4862 69.449 62.4841 69.4849 62.482C69.6136 62.4744 69.7438 62.4668 69.8617 62.5545C69.9389 62.751 69.819 62.8626 69.7037 62.9698L69.6945 62.9783L69.6686 63.0027L69.6547 63.0161L69.647 63.0238C68.628 64.0426 67.9334 65.2166 67.9017 66.7002C67.8921 67.1524 67.6115 67.1754 67.2701 67.1746L66.9201 67.1738C65.1429 67.1698 63.3656 67.1658 61.5885 67.1789C60.5906 67.1863 59.592 67.2151 58.5955 67.2677C58.0647 67.2957 57.8393 67.1197 57.8575 66.5643C57.8784 65.9259 57.873 65.2866 57.8674 64.6265V64.626V64.6255C57.865 64.3401 57.8625 64.0509 57.8621 63.7561L57.8618 63.6565ZM61.2733 76.6788C62.3274 76.7927 63.0714 76.4171 63.6799 75.5554C64.7781 74.3722 65.8459 73.2209 66.9318 72.05C66.8986 72.0319 66.8708 72.0135 66.8463 71.9974L66.8462 71.9974C66.8023 71.9684 66.7694 71.9468 66.7365 71.9468C65.6466 71.946 64.5567 71.9465 63.4668 71.947C61.7476 71.9478 60.0284 71.9486 58.3092 71.9445C57.9657 71.9437 57.8751 72.1178 57.8742 72.4062C57.8729 72.7766 57.8722 73.1469 57.8714 73.5173L57.8714 73.5251C57.8697 74.3799 57.8681 75.2347 57.8598 76.0894C57.8557 76.5158 58.0405 76.6745 58.4663 76.665C58.663 76.6606 58.86 76.6542 59.0573 76.6478C59.7987 76.6239 60.5421 76.5999 61.2733 76.6788ZM81.5122 79.0426L81.4339 79.0407L81.4331 79.0407C81.1621 79.0341 80.9345 79.0285 80.7072 79.0162C80.6848 79.015 80.6635 78.9935 80.6424 78.9722L80.6423 78.9722C80.6331 78.9629 80.6239 78.9536 80.6147 78.946C80.8893 78.2958 81.7707 77.28 82.4341 76.8879C82.5648 77.5248 82.5738 78.1488 82.4673 78.7455C82.406 79.0895 82.1536 79.0668 81.8814 79.0424C81.757 79.0313 81.6286 79.0197 81.5122 79.0426ZM33.9285 48.6297C34.2207 49.5521 34.8584 50.1824 35.6888 50.7111C36.9406 51.34 38.224 51.5255 39.5415 51.2561C41.0149 50.9548 42.2229 50.2527 42.796 48.7548L42.8081 48.7234C42.91 48.4585 43.0219 48.1675 42.8039 47.9315C42.6156 47.7274 42.3899 47.8272 42.1842 47.9181C42.1383 47.9384 42.0934 47.9582 42.0501 47.9741C39.589 48.8801 37.143 48.8816 34.7023 47.8968C34.6627 47.8808 34.6221 47.8609 34.5807 47.8407C34.3973 47.751 34.1999 47.6544 34.0189 47.8616C33.8254 48.0831 33.8417 48.3558 33.9285 48.6297ZM35.7116 44.8766C35.5299 44.5258 35.5236 44.1979 35.5772 43.865C35.6831 43.2076 36.0649 42.9173 36.7092 43.0755C37.8379 43.3527 38.9525 43.389 40.0851 43.0881C40.9521 42.8578 41.5651 43.5211 41.3469 44.4069C41.275 44.6989 41.1272 44.9498 40.9017 45.1407C39.7214 46.1404 36.7173 46.2141 35.7116 44.8766ZM114.88 96.16C117.04 96.9867 119.253 97.4 121.52 97.4C123.92 97.4 126 97.04 127.76 96.32C129.547 95.5733 130.92 94.5333 131.88 93.2C132.84 91.84 133.32 90.2533 133.32 88.44C133.32 86.28 132.627 84.5467 131.24 83.24C129.853 81.9067 127.76 81.0133 124.96 80.56L119.68 79.68C118.24 79.44 117.213 79.0933 116.6 78.64C115.987 78.16 115.68 77.4933 115.68 76.64C115.68 76 115.88 75.4533 116.28 75C116.707 74.52 117.307 74.1467 118.08 73.88C118.853 73.6133 119.76 73.48 120.8 73.48C123.76 73.48 126.707 74.6 129.64 76.84L132.76 72.52C131.187 71.2933 129.373 70.3333 127.32 69.64C125.293 68.9467 123.253 68.6 121.2 68.6C118.933 68.6 116.973 68.9467 115.32 69.64C113.693 70.3067 112.427 71.28 111.52 72.56C110.64 73.84 110.2 75.3467 110.2 77.08C110.2 79.1067 110.813 80.76 112.04 82.04C113.293 83.32 115.107 84.16 117.48 84.56L123.04 85.52C124.72 85.8133 125.907 86.2267 126.6 86.76C127.293 87.2667 127.64 88 127.64 88.96C127.64 89.68 127.4 90.3067 126.92 90.84C126.467 91.3733 125.813 91.7867 124.96 92.08C124.107 92.3467 123.093 92.48 121.92 92.48C120.24 92.48 118.64 92.16 117.12 91.52C115.627 90.88 114.067 89.84 112.44 88.4L109.12 92.56C110.8 94.1067 112.72 95.3067 114.88 96.16ZM136.754 69V97H158.434V91.96H142.554V85.32H152.914V80.44H142.554V74.04H158.274V69H136.754ZM162.536 69V97H168.336V86.28H174.656L180.136 97H186.616L180.416 85.44C182.069 84.7733 183.389 83.76 184.376 82.4C185.362 81.04 185.856 79.4667 185.856 77.68C185.856 75.9733 185.442 74.4667 184.616 73.16C183.816 71.8533 182.682 70.84 181.216 70.12C179.776 69.3733 178.109 69 176.216 69H162.536ZM175.696 81.52H168.336V74H175.696C177.002 74 178.042 74.3467 178.816 75.04C179.616 75.7333 180.016 76.64 180.016 77.76C180.016 78.88 179.616 79.7867 178.816 80.48C178.042 81.1733 177.002 81.52 175.696 81.52ZM186.418 69L197.778 97H204.498L216.018 69H210.018L201.258 91.04L192.698 69H186.418ZM218.395 69V97H224.195V69H218.395ZM237.253 96.32C239.067 97.04 241.013 97.4 243.093 97.4C244.587 97.4 246.04 97.2 247.453 96.8C248.893 96.3733 250.227 95.7733 251.453 95C252.68 94.2267 253.733 93.3067 254.613 92.24L250.813 88.48C249.827 89.6267 248.693 90.5067 247.413 91.12C246.133 91.7333 244.76 92.04 243.293 92.04C241.987 92.04 240.773 91.8133 239.653 91.36C238.56 90.9067 237.6 90.28 236.773 89.48C235.947 88.6533 235.307 87.6933 234.853 86.6C234.4 85.48 234.173 84.28 234.173 83C234.173 81.6933 234.4 80.4933 234.853 79.4C235.307 78.28 235.933 77.32 236.733 76.52C237.533 75.6933 238.48 75.0533 239.573 74.6C240.667 74.12 241.84 73.88 243.093 73.88C244.613 73.88 246.027 74.2 247.333 74.84C248.667 75.48 249.84 76.4267 250.853 77.68L254.773 73.8C253.893 72.7067 252.827 71.7733 251.573 71C250.347 70.2267 249.013 69.6267 247.573 69.2C246.133 68.7733 244.64 68.56 243.093 68.56C241.013 68.56 239.067 68.9333 237.253 69.68C235.467 70.4 233.893 71.4133 232.533 72.72C231.173 74.0267 230.107 75.56 229.333 77.32C228.587 79.0533 228.213 80.9467 228.213 83C228.213 85.0267 228.587 86.92 229.333 88.68C230.107 90.4133 231.16 91.9333 232.493 93.24C233.853 94.5467 235.44 95.5733 237.253 96.32ZM279.524 69H258.004V97H279.684V91.96H263.804V85.32H274.164V80.44H263.804V74.04H279.524V69ZM287.146 96.16C289.306 96.9867 291.519 97.4 293.786 97.4C296.186 97.4 298.266 97.04 300.026 96.32C301.812 95.5733 303.186 94.5333 304.146 93.2C305.106 91.84 305.586 90.2533 305.586 88.44C305.586 86.28 304.892 84.5467 303.506 83.24C302.119 81.9067 300.026 81.0133 297.226 80.56L291.946 79.68C290.506 79.44 289.479 79.0933 288.866 78.64C288.252 78.16 287.946 77.4933 287.946 76.64C287.946 76 288.146 75.4533 288.546 75C288.972 74.52 289.572 74.1467 290.346 73.88C291.119 73.6133 292.026 73.48 293.066 73.48C296.026 73.48 298.972 74.6 301.906 76.84L305.026 72.52C303.452 71.2933 301.639 70.3333 299.586 69.64C297.559 68.9467 295.519 68.6 293.466 68.6C291.199 68.6 289.239 68.9467 287.586 69.64C285.959 70.3067 284.692 71.28 283.786 72.56C282.906 73.84 282.466 75.3467 282.466 77.08C282.466 79.1067 283.079 80.76 284.306 82.04C285.559 83.32 287.372 84.16 289.746 84.56L295.306 85.52C296.986 85.8133 298.172 86.2267 298.866 86.76C299.559 87.2667 299.906 88 299.906 88.96C299.906 89.68 299.666 90.3067 299.186 90.84C298.732 91.3733 298.079 91.7867 297.226 92.08C296.372 92.3467 295.359 92.48 294.186 92.48C292.506 92.48 290.906 92.16 289.386 91.52C287.892 90.88 286.332 89.84 284.706 88.4L281.386 92.56C283.066 94.1067 284.986 95.3067 287.146 96.16Z" fill="url(#paint0_linear_70_13)"/>
<path d="M127.024 52.48C124.304 52.48 121.648 51.984 119.056 50.992C116.464 49.968 114.16 48.528 112.144 46.672L116.128 41.68C118.08 43.408 119.952 44.656 121.744 45.424C123.568 46.192 125.488 46.576 127.504 46.576C128.912 46.576 130.128 46.416 131.152 46.096C132.176 45.744 132.96 45.248 133.504 44.608C134.08 43.968 134.368 43.216 134.368 42.352C134.368 41.2 133.952 40.32 133.12 39.712C132.288 39.072 130.864 38.576 128.848 38.224L122.176 37.072C119.328 36.592 117.152 35.584 115.648 34.048C114.176 32.512 113.44 30.528 113.44 28.096C113.44 26.016 113.968 24.208 115.024 22.672C116.112 21.136 117.632 19.968 119.584 19.168C121.568 18.336 123.92 17.92 126.64 17.92C129.104 17.92 131.552 18.336 133.984 19.168C136.448 20 138.624 21.152 140.512 22.624L136.768 27.808C133.248 25.12 129.712 23.776 126.16 23.776C124.912 23.776 123.824 23.936 122.896 24.256C121.968 24.576 121.248 25.024 120.736 25.6C120.256 26.144 120.016 26.8 120.016 27.568C120.016 28.592 120.384 29.392 121.12 29.968C121.856 30.512 123.088 30.928 124.816 31.216L131.152 32.272C134.512 32.816 137.024 33.888 138.688 35.488C140.352 37.056 141.184 39.136 141.184 41.728C141.184 43.904 140.608 45.808 139.456 47.44C138.304 49.04 136.656 50.288 134.512 51.184C132.4 52.048 129.904 52.48 127.024 52.48ZM151.065 52V18.4H159.993L169.209 36.544L178.425 18.4H187.353V52H180.777V27.28L169.113 49.6L157.497 27.184V52H151.065ZM195.937 52L209.761 18.4H217.777L231.457 52H223.921L220.513 43.168H206.641L203.185 52H195.937ZM208.801 37.6H218.401L213.601 25.216L208.801 37.6ZM240.07 52V18.4H256.486C258.758 18.4 260.758 18.848 262.486 19.744C264.246 20.608 265.606 21.824 266.566 23.392C267.558 24.96 268.054 26.768 268.054 28.816C268.054 30.96 267.462 32.848 266.278 34.48C265.094 36.112 263.51 37.328 261.526 38.128L268.966 52H261.19L254.614 39.136H247.03V52H240.07ZM247.03 33.424H255.862C257.43 33.424 258.678 33.008 259.606 32.176C260.566 31.344 261.046 30.256 261.046 28.912C261.046 27.568 260.566 26.48 259.606 25.648C258.678 24.816 257.43 24.4 255.862 24.4H247.03V33.424ZM287.248 52V24.544H275.92V18.4H305.488V24.544H294.208V52H287.248Z" fill="white"/>
<defs>
<linearGradient id="paint0_linear_70_13" x1="-2.5" y1="-3.37435e-06" x2="303" y2="91.5" gradientUnits="userSpaceOnUse">
<stop stop-color="#9747FF"/>
<stop offset="1" stop-color="#4E3ABA"/>
</linearGradient>
</defs>
</svg>
