<svg width="357" height="322" viewBox="0 0 357 322" fill="none" xmlns="http://www.w3.org/2000/svg">
<path d="M141.937 120.609C143.206 125.752 144.466 130.815 145.762 136.02C147.384 135.013 148.893 134.073 150.406 133.14C150.924 132.82 150.775 132.384 150.658 131.932C149.468 127.338 148.284 122.742 147.098 118.147C146.757 116.825 146.442 115.496 146.059 114.186C145.892 113.614 145.979 113.196 146.396 112.778C147.223 111.95 148.007 111.077 148.832 110.246C149.297 109.777 149.341 109.328 148.986 108.769C146.129 104.279 144.156 99.4196 142.971 94.2375C142.85 93.7088 142.563 93.453 142.065 93.227C137.187 91.0136 134.931 84.6128 137.355 79.9086C137.59 79.4509 137.864 78.9675 138.243 78.6387C138.913 78.0577 139.056 77.4298 138.892 76.5797C137.974 71.8179 138.153 66.9928 138.156 62.1821C138.158 57.9847 138.017 53.7825 138.307 49.5909C138.657 44.5382 140.663 40.1783 144.033 36.4268C147.174 32.93 150.966 30.3516 155.267 28.4974C155.555 28.3733 155.841 28.1716 156.338 28.3507C156.338 30.7177 156.338 33.1351 156.338 35.7497C157.388 35.2067 158.245 34.776 159.089 34.3198C159.474 34.112 159.408 33.707 159.41 33.3569C159.42 31.5342 159.453 29.7106 159.408 27.8891C159.388 27.0839 159.637 26.6487 160.437 26.3924C164.622 25.0523 168.887 24.7398 173.24 25.198C174.995 25.3828 176.694 25.7826 178.398 26.204C179.29 26.4244 179.692 26.8311 179.644 27.8234C179.556 29.6421 179.632 31.4681 179.602 33.2904C179.592 33.8938 179.79 34.2378 180.369 34.4698C181.082 34.7558 181.749 35.1565 182.519 35.5502C182.738 34.4322 182.616 33.3998 182.64 32.3772C182.668 31.2385 182.659 30.0989 182.666 28.9597C182.67 28.2821 182.868 27.9943 183.615 28.3228C190.063 31.1578 195.302 35.3445 198.614 41.6881C200.247 44.8156 200.814 48.2086 200.852 51.6825C200.919 57.6385 200.919 63.5958 200.881 69.5522C200.866 71.8566 200.626 74.1565 200.203 76.4276C200.063 77.1799 200.182 77.7448 200.746 78.3539C203.363 81.1759 203.548 85.8103 201.223 89.4213C200.113 91.1447 198.731 92.6052 196.745 93.3284C196.181 93.5336 196.166 94.003 196.079 94.4181C195.367 97.8126 194.17 101.033 192.659 104.145C192.446 104.583 192.153 104.831 191.662 104.968C187.625 106.094 185.307 109.123 185.251 113.345C185.243 114 185.122 114.527 184.609 114.991C181.428 117.868 178.086 120.487 173.918 121.812C169.689 123.157 165.692 122.411 161.86 120.405C159.25 119.038 156.912 117.283 154.747 115.29C154.459 115.024 154.205 114.491 153.72 114.741C153.267 114.975 153.602 115.444 153.622 115.81C153.683 116.946 153.78 118.081 153.803 119.218C153.817 119.939 154.058 120.539 154.463 121.114C156.355 123.801 158.22 126.507 160.133 129.18C160.525 129.728 160.575 130.147 160.093 130.619C159.978 130.731 159.912 130.897 159.79 130.998C158.538 132.04 158.374 133.133 159.04 134.714C160.907 139.147 162.555 143.672 164.291 148.16C164.373 148.37 164.479 148.57 164.669 148.983C164.819 148.392 164.972 147.988 165.018 147.572C165.381 144.281 165.711 140.986 166.087 137.697C166.142 137.211 165.956 136.878 165.7 136.543C164.89 135.483 164.08 134.423 163.247 133.381C162.872 132.913 162.907 132.533 163.305 132.097C164.532 130.75 165.747 129.392 166.945 128.019C167.341 127.566 167.783 127.369 168.392 127.39C169.269 127.421 170.15 127.392 171.026 127.341C171.465 127.315 171.77 127.466 172.049 127.779C173.305 129.187 174.561 130.596 175.837 131.987C176.282 132.473 176.33 132.888 175.889 133.419C175.059 134.419 174.288 135.468 173.474 136.481C173.08 136.97 172.949 137.495 173.023 138.116C173.415 141.4 173.792 144.687 174.164 147.973C174.207 148.353 174.217 148.731 174.547 149.157C175.368 147.056 176.154 145.037 176.947 143.021C178.089 140.116 179.199 137.197 180.402 134.316C180.844 133.257 180.765 132.465 179.992 131.584C178.616 130.016 178.665 129.976 179.851 128.259C181.513 125.852 183.173 123.443 184.878 120.971C185.258 121.378 185.099 121.815 185.099 122.195C185.104 137.721 185.099 153.248 185.095 168.774C185.095 169.946 185.104 171.118 185.1 172.29C185.096 173.594 185.091 173.599 183.81 173.598C176.486 173.593 169.162 173.58 161.838 173.581C144.717 173.583 127.596 173.592 110.474 173.597C108.519 173.598 108.465 173.595 108.508 171.599C108.675 163.983 108.38 156.361 108.661 148.754C108.949 140.951 112.071 134.438 118.67 129.941C121.737 127.851 125.172 126.379 128.469 124.683C132.229 122.748 136.012 120.855 139.799 118.974C141.3 118.228 141.369 117.932 141.759 119.868C141.804 120.09 141.872 120.308 141.937 120.609ZM168.611 113.727C172.228 113.93 175.397 112.743 178.192 110.527C182.654 106.988 185.615 102.377 187.477 97.0548C189.997 89.8559 190.887 82.4075 190.65 74.8074C190.64 74.4968 190.733 74.1474 190.424 73.8852C189.968 73.81 189.639 74.1144 189.277 74.3075C183.072 77.6209 176.544 78.4309 169.728 76.743C164.608 75.4748 160.163 72.8959 156.198 69.4644C155.649 68.9886 155.175 68.9001 154.54 69.2275C152.777 70.1355 150.998 71.0141 149.224 71.8997C148.854 72.0843 148.589 72.3096 148.571 72.7764C148.531 73.7826 148.406 74.7867 148.396 75.7925C148.356 79.8927 148.651 83.9696 149.365 88.0103C150.292 93.2556 151.669 98.3628 154.476 102.951C157.747 108.299 161.857 112.625 168.611 113.727ZM185.682 60.8759C189.55 62.5197 193.07 64.7761 196.588 67.1977C197.196 64.1642 196.498 61.6996 194.323 59.6423C192.13 57.569 189.529 56.1845 186.786 55.0431C179.027 51.815 170.95 51.0898 162.685 52.1878C157.881 52.826 153.283 54.2061 149.031 56.5868C146.365 58.0798 143.858 59.7802 142.593 62.7375C141.964 64.2086 142.045 65.7428 142.329 67.4911C155.635 57.3884 169.92 54.6323 185.682 60.8759ZM172.282 44.5204C174.315 43.288 175.382 41.5312 175.231 39.1073C175.09 36.8348 173.89 35.2772 171.887 34.3448C169.739 33.3443 167.66 33.6602 165.865 35.1407C164.161 36.5448 163.477 38.4339 163.933 40.6358C164.724 44.4563 168.963 46.2307 172.282 44.5204ZM188.373 49.7681C189.3 50.2632 190.226 50.7583 191.202 51.2801C191.544 50.0521 191.38 48.9088 191.429 47.7806C191.589 44.0264 191.31 40.3183 190.219 36.701C190.099 36.3032 190.097 35.8041 189.716 35.5667C188.654 34.9058 187.559 34.2977 186.5 33.6815C185.962 34.208 186.014 34.7222 186.207 35.2812C186.695 36.6922 187.167 38.107 187.45 39.5797C188.027 42.575 187.815 45.5991 187.816 48.6157C187.816 49.0391 187.729 49.481 188.373 49.7681ZM151.185 43.1639C151.295 40.7835 151.701 38.4586 152.559 36.2292C152.89 35.3678 152.7 34.6722 152.054 33.9811C151.338 34.4267 150.653 34.8528 149.969 35.2805C149.831 35.3665 149.698 35.4592 149.561 35.5473C149.265 35.7391 149.179 36.0561 149.066 36.3618C147.398 40.8913 147.496 45.6028 147.625 50.3174C147.628 50.4133 147.656 50.5094 147.679 50.6037C147.806 51.1208 148.069 51.3322 148.589 51.0309C149.208 50.673 149.816 50.2894 150.464 49.9935C151.056 49.7232 151.231 49.338 151.225 48.6976C151.21 46.9134 150.936 45.1303 151.185 43.1639ZM171.721 69.7821C175.587 70.5793 179.36 70.3688 183.018 68.7947C177.313 68.1482 171.64 67.4172 165.941 66.7634C167.554 68.3342 169.471 69.2147 171.721 69.7821Z" fill="white"/>
<path d="M194.113 146.875C194.091 154.067 194.071 161.161 194.047 168.255C194.042 169.892 194.781 170.655 196.403 170.655C210.756 170.653 225.108 170.651 239.46 170.647C241.453 170.647 241.938 170.165 241.939 168.175C241.941 150.763 241.941 133.352 241.942 115.94C241.942 115.647 241.942 115.354 241.93 115.062C241.87 113.673 241.15 113.059 239.778 113.22C239.588 113.242 239.398 113.263 239.069 113.3C238.892 111.984 239.172 110.69 238.966 109.421C238.762 108.166 237.962 107.142 237.453 105.819C239.943 105.858 242.215 105.452 244.464 105.892C247.236 106.435 249.07 108.872 249.071 111.872C249.075 130.357 249.074 148.843 249.074 167.328C249.074 168.663 249.003 170.001 249.086 171.331C249.302 174.805 246.488 177.954 242.445 177.948C231.608 177.933 220.771 177.946 209.933 177.947C204.531 177.948 199.128 177.955 193.726 177.941C190.679 177.933 188.353 176.378 187.425 173.76C187.139 172.955 187.064 172.111 187.064 171.262C187.051 151.474 187.035 131.687 187.032 111.9C187.031 108.075 189.274 105.836 193.077 105.785C194.801 105.762 196.524 105.713 198.248 105.688C198.595 105.683 198.972 105.617 199.406 106.096C197.618 108.096 197.179 110.551 197.575 113.124C197.062 113.507 196.664 113.174 196.265 113.152C194.841 113.074 194.173 113.62 194.166 115.047C194.138 120.547 194.134 126.047 194.126 131.547C194.119 136.624 194.117 141.7 194.113 146.875Z" fill="white"/>
<path d="M210.31 145.486C213.317 142.323 216.276 139.211 219.243 136.107C219.588 135.746 219.835 135.397 219.888 134.854C220.083 132.858 221.115 132.088 223.129 132.417C223.504 132.478 223.675 132.32 223.868 132.103C224.409 131.497 224.939 130.879 225.483 130.275C226.387 129.273 227.56 129.1 228.727 129.787C231.006 131.127 231.337 133.343 229.538 135.21C227.986 136.822 227.991 136.816 229.722 138.326C229.986 138.556 230.2 138.634 230.483 138.401C232.425 136.801 233.804 134.875 233.689 132.239C233.578 129.696 232.294 127.806 230.082 126.588C227.414 125.119 223.951 125.974 222.191 128.481C221.968 128.8 221.766 129.139 221.511 129.431C220.736 130.32 219.48 130.533 218.61 129.949C217.787 129.397 217.526 128.187 218.076 127.152C218.866 125.663 219.955 124.388 221.33 123.439C224.763 121.07 228.497 120.833 232.144 122.676C235.835 124.541 237.775 127.718 237.957 131.942C238.111 135.512 236.737 138.394 234.277 140.847C233.816 141.307 233.533 141.71 233.999 142.336C234.293 142.731 234.153 143.136 233.848 143.49C232.255 145.336 230.694 147.216 228.932 148.904C228.116 149.686 226.847 149.604 226.091 148.858C225.318 148.096 225.321 146.856 226.111 145.964C226.759 145.233 227.41 144.506 228.082 143.798C228.438 143.422 228.484 143.125 228.085 142.73C227.533 142.184 227.04 141.58 226.479 140.953C225.064 142.085 224.119 143.37 223.067 144.54C219.653 148.337 216.279 152.171 212.897 155.998C211.928 157.094 210.944 158.182 210.036 159.329C209.065 160.556 207.925 161.476 206.457 162.084C204.204 163.016 202.014 164.097 199.793 165.108C199.351 165.309 198.882 165.558 198.415 165.205C197.939 164.846 198.031 164.317 198.174 163.856C199.078 160.938 200.051 158.042 201.198 155.21C201.352 154.831 201.654 154.495 201.943 154.192C204.71 151.301 207.489 148.421 210.31 145.486Z" fill="white"/>
<path d="M227.184 103.152C227.179 105.694 227.179 105.715 229.687 105.652C232.128 105.592 234.23 106.256 235.487 108.496C237.64 112.336 235.002 116.625 230.467 116.652C224.059 116.691 217.65 116.665 211.241 116.666C209.549 116.666 207.858 116.669 206.166 116.664C202.882 116.655 200.541 114.55 200.45 111.531C200.352 108.281 202.618 105.852 205.947 105.663C206.66 105.622 207.38 105.614 208.093 105.656C208.909 105.705 209.191 105.377 209.133 104.568C208.945 101.937 209.529 99.4983 211.292 97.4829C213.769 94.6526 216.925 93.6534 220.532 94.6582C224.077 95.6461 226.327 98.0026 227.001 101.711C227.082 102.157 227.124 102.611 227.184 103.152ZM218.824 101.731C217.59 101.527 216.849 101.809 216.32 102.722C215.817 103.589 215.831 104.451 216.425 105.28C217.024 106.117 217.838 106.413 218.82 106.156C219.773 105.907 220.294 105.223 220.423 104.275C220.575 103.155 220.103 102.398 218.824 101.731Z" fill="white"/>
<path d="M216.738 157.968C217.784 156.227 219.287 155.927 221.16 155.975C226.07 156.1 230.985 156.036 235.897 155.999C236.752 155.992 237.026 156.224 236.993 157.097C236.925 158.884 236.958 160.675 236.985 162.464C236.993 163.026 236.851 163.306 236.233 163.305C228.523 163.29 220.812 163.29 213.102 163.281C212.949 163.281 212.797 163.216 212.41 163.129C213.755 161.24 215.331 159.715 216.738 157.968Z" fill="white"/>
<path d="M198.597 124.619C198.59 122.294 198.545 122.659 200.494 122.652C205.859 122.634 211.225 122.637 216.59 122.635C216.843 122.635 217.111 122.566 217.346 122.741C217.487 123.1 217.208 123.277 217.011 123.475C215.419 125.067 214.333 126.901 214.284 129.219C214.269 129.926 213.83 129.962 213.297 129.96C210.338 129.954 207.379 129.945 204.42 129.967C202.86 129.979 201.3 130.024 199.743 130.106C198.914 130.15 198.561 129.875 198.59 129.007C198.637 127.578 198.599 126.146 198.597 124.619Z" fill="white"/>
<path d="M207.687 143.055C206.737 144.402 205.574 144.989 203.927 144.811C202.481 144.654 201.004 144.756 199.541 144.789C198.876 144.804 198.587 144.556 198.593 143.89C198.612 141.971 198.609 140.053 198.616 138.135C198.617 137.684 198.759 137.412 199.296 137.413C203.685 137.424 208.074 137.414 212.463 137.417C212.543 137.417 212.623 137.499 212.768 137.578C211.072 139.408 209.403 141.207 207.687 143.055Z" fill="white"/>
<path d="M235.55 148.504C235.071 148.492 234.682 148.484 234.293 148.463C234.242 148.46 234.195 148.392 234.148 148.353C234.577 147.337 235.954 145.75 236.991 145.137C237.195 146.133 237.209 147.107 237.043 148.04C236.903 148.823 236.13 148.39 235.55 148.504Z" fill="white"/>
<path d="M163.951 104.236C162.654 103.41 161.657 102.425 161.201 100.984C161.065 100.556 161.04 100.13 161.342 99.7837C161.688 99.387 162.074 99.703 162.41 99.8387C166.223 101.377 170.045 101.375 173.891 99.9595C174.261 99.8231 174.709 99.5029 175.069 99.8928C175.423 100.276 175.22 100.753 175.056 101.179C174.161 103.52 172.273 104.617 169.971 105.088C167.912 105.509 165.907 105.219 163.951 104.236Z" fill="white"/>
<path d="M163.987 95.1196C163.703 94.5715 163.693 94.0591 163.777 93.539C163.942 92.512 164.539 92.0583 165.546 92.3055C167.309 92.7386 169.051 92.7953 170.82 92.3252C172.175 91.9653 173.133 93.0017 172.792 94.3858C172.68 94.842 172.449 95.2341 172.096 95.5324C170.252 97.0944 165.558 97.2096 163.987 95.1196Z" fill="white"/>
<path d="M58.0266 255.68C54.1733 255.68 50.4106 254.977 46.7386 253.572C43.0666 252.121 39.8026 250.081 36.9466 247.452L42.5906 240.38C45.3559 242.828 48.0079 244.596 50.5466 245.684C53.1306 246.772 55.8506 247.316 58.7066 247.316C60.7013 247.316 62.4239 247.089 63.8746 246.636C65.3253 246.137 66.4359 245.435 67.2066 244.528C68.0226 243.621 68.4306 242.556 68.4306 241.332C68.4306 239.7 67.8413 238.453 66.6626 237.592C65.4839 236.685 63.4666 235.983 60.6106 235.484L51.1586 233.852C47.1239 233.172 44.0413 231.744 41.9106 229.568C39.8253 227.392 38.7826 224.581 38.7826 221.136C38.7826 218.189 39.5306 215.628 41.0266 213.452C42.5679 211.276 44.7213 209.621 47.4866 208.488C50.2973 207.309 53.6293 206.72 57.4826 206.72C60.9733 206.72 64.4413 207.309 67.8866 208.488C71.3773 209.667 74.4599 211.299 77.1346 213.384L71.8306 220.728C66.8439 216.92 61.8346 215.016 56.8026 215.016C55.0346 215.016 53.4933 215.243 52.1786 215.696C50.8639 216.149 49.8439 216.784 49.1186 217.6C48.4386 218.371 48.0986 219.3 48.0986 220.388C48.0986 221.839 48.6199 222.972 49.6626 223.788C50.7053 224.559 52.4506 225.148 54.8986 225.556L63.8746 227.052C68.6346 227.823 72.1933 229.341 74.5506 231.608C76.9079 233.829 78.0866 236.776 78.0866 240.448C78.0866 243.531 77.2706 246.228 75.6386 248.54C74.0066 250.807 71.6719 252.575 68.6346 253.844C65.6426 255.068 62.1066 255.68 58.0266 255.68ZM92.085 255V207.4H104.733L117.789 233.104L130.845 207.4H143.493V255H134.177V219.98L117.653 251.6L101.197 219.844V255H92.085ZM155.654 255L175.238 207.4H186.594L205.974 255H195.298L190.47 242.488H170.818L165.922 255H155.654ZM173.878 234.6H187.478L180.678 217.056L173.878 234.6ZM218.175 255V207.4H241.431C244.649 207.4 247.483 208.035 249.931 209.304C252.424 210.528 254.351 212.251 255.711 214.472C257.116 216.693 257.819 219.255 257.819 222.156C257.819 225.193 256.98 227.868 255.303 230.18C253.625 232.492 251.381 234.215 248.571 235.348L259.111 255H248.095L238.779 236.776H228.035V255H218.175ZM228.035 228.684H240.547C242.768 228.684 244.536 228.095 245.851 226.916C247.211 225.737 247.891 224.196 247.891 222.292C247.891 220.388 247.211 218.847 245.851 217.668C244.536 216.489 242.768 215.9 240.547 215.9H228.035V228.684ZM285.01 255V216.104H268.962V207.4H310.85V216.104H294.87V255H285.01ZM31.909 316.68C28.0557 316.68 24.293 315.977 20.621 314.572C16.949 313.121 13.685 311.081 10.829 308.452L16.473 301.38C19.2383 303.828 21.8903 305.596 24.429 306.684C27.013 307.772 29.733 308.316 32.589 308.316C34.5837 308.316 36.3063 308.089 37.757 307.636C39.2077 307.137 40.3183 306.435 41.089 305.528C41.905 304.621 42.313 303.556 42.313 302.332C42.313 300.7 41.7237 299.453 40.545 298.592C39.3663 297.685 37.349 296.983 34.493 296.484L25.041 294.852C21.0063 294.172 17.9237 292.744 15.793 290.568C13.7077 288.392 12.665 285.581 12.665 282.136C12.665 279.189 13.413 276.628 14.909 274.452C16.4503 272.276 18.6037 270.621 21.369 269.488C24.1797 268.309 27.5117 267.72 31.365 267.72C34.8557 267.72 38.3237 268.309 41.769 269.488C45.2597 270.667 48.3423 272.299 51.017 274.384L45.713 281.728C40.7263 277.92 35.717 276.016 30.685 276.016C28.917 276.016 27.3757 276.243 26.061 276.696C24.7463 277.149 23.7263 277.784 23.001 278.6C22.321 279.371 21.981 280.3 21.981 281.388C21.981 282.839 22.5023 283.972 23.545 284.788C24.5877 285.559 26.333 286.148 28.781 286.556L37.757 288.052C42.517 288.823 46.0757 290.341 48.433 292.608C50.7903 294.829 51.969 297.776 51.969 301.448C51.969 304.531 51.153 307.228 49.521 309.54C47.889 311.807 45.5543 313.575 42.517 314.844C39.525 316.068 35.989 316.68 31.909 316.68ZM57.8074 316V268.4H94.3914V276.968H67.6674V287.848H85.2794V296.144H67.6674V307.432H94.6634V316H57.8074ZM101.636 316V268.4H124.892C128.11 268.4 130.944 269.035 133.392 270.304C135.885 271.528 137.812 273.251 139.172 275.472C140.577 277.693 141.28 280.255 141.28 283.156C141.28 286.193 140.441 288.868 138.764 291.18C137.086 293.492 134.842 295.215 132.032 296.348L142.572 316H131.556L122.24 297.776H111.496V316H101.636ZM111.496 289.684H124.008C126.229 289.684 127.997 289.095 129.312 287.916C130.672 286.737 131.352 285.196 131.352 283.292C131.352 281.388 130.672 279.847 129.312 278.668C127.997 277.489 126.229 276.9 124.008 276.9H111.496V289.684ZM161.548 316L142.236 268.4H152.912L167.464 305.868L182.356 268.4H192.556L172.972 316H161.548ZM196.597 316V268.4H206.457V316H196.597ZM238.584 316.68C235.048 316.68 231.739 316.068 228.656 314.844C225.573 313.575 222.876 311.829 220.564 309.608C218.297 307.387 216.507 304.803 215.192 301.856C213.923 298.864 213.288 295.645 213.288 292.2C213.288 288.709 213.923 285.491 215.192 282.544C216.507 279.552 218.32 276.945 220.632 274.724C222.944 272.503 225.619 270.78 228.656 269.556C231.739 268.287 235.048 267.652 238.584 267.652C241.213 267.652 243.752 268.015 246.2 268.74C248.648 269.465 250.915 270.485 253 271.8C255.131 273.115 256.944 274.701 258.44 276.56L251.776 283.156C250.053 281.025 248.059 279.416 245.792 278.328C243.571 277.24 241.168 276.696 238.584 276.696C236.453 276.696 234.459 277.104 232.6 277.92C230.741 278.691 229.132 279.779 227.772 281.184C226.412 282.544 225.347 284.176 224.576 286.08C223.805 287.939 223.42 289.979 223.42 292.2C223.42 294.376 223.805 296.416 224.576 298.32C225.347 300.179 226.435 301.811 227.84 303.216C229.245 304.576 230.877 305.641 232.736 306.412C234.64 307.183 236.703 307.568 238.924 307.568C241.417 307.568 243.752 307.047 245.928 306.004C248.104 304.961 250.031 303.465 251.708 301.516L258.168 307.908C256.672 309.721 254.881 311.285 252.796 312.6C250.711 313.915 248.444 314.935 245.996 315.66C243.593 316.34 241.123 316.68 238.584 316.68ZM263.932 316V268.4H300.516V276.968H273.792V287.848H291.404V296.144H273.792V307.432H300.788V316H263.932ZM324.761 316.68C320.907 316.68 317.145 315.977 313.473 314.572C309.801 313.121 306.537 311.081 303.681 308.452L309.325 301.38C312.09 303.828 314.742 305.596 317.281 306.684C319.865 307.772 322.585 308.316 325.441 308.316C327.435 308.316 329.158 308.089 330.609 307.636C332.059 307.137 333.17 306.435 333.941 305.528C334.757 304.621 335.165 303.556 335.165 302.332C335.165 300.7 334.575 299.453 333.397 298.592C332.218 297.685 330.201 296.983 327.345 296.484L317.893 294.852C313.858 294.172 310.775 292.744 308.645 290.568C306.559 288.392 305.517 285.581 305.517 282.136C305.517 279.189 306.265 276.628 307.761 274.452C309.302 272.276 311.455 270.621 314.221 269.488C317.031 268.309 320.363 267.72 324.217 267.72C327.707 267.72 331.175 268.309 334.621 269.488C338.111 270.667 341.194 272.299 343.869 274.384L338.565 281.728C333.578 277.92 328.569 276.016 323.537 276.016C321.769 276.016 320.227 276.243 318.913 276.696C317.598 277.149 316.578 277.784 315.853 278.6C315.173 279.371 314.833 280.3 314.833 281.388C314.833 282.839 315.354 283.972 316.397 284.788C317.439 285.559 319.185 286.148 321.633 286.556L330.609 288.052C335.369 288.823 338.927 290.341 341.285 292.608C343.642 294.829 344.821 297.776 344.821 301.448C344.821 304.531 344.005 307.228 342.373 309.54C340.741 311.807 338.406 313.575 335.369 314.844C332.377 316.068 328.841 316.68 324.761 316.68Z" fill="white"/>
</svg>
