<svg width="331" height="128" viewBox="0 0 331 128" fill="none" xmlns="http://www.w3.org/2000/svg">
<path d="M41.3999 77.1896C42.212 80.4815 43.0185 83.7219 43.8475 87.0525C44.886 86.4082 45.8517 85.8068 46.8199 85.2095C47.1516 85.005 47.0562 84.7257 46.9812 84.4363C46.2197 81.4961 45.4619 78.555 44.7027 75.6143C44.4843 74.7682 44.2826 73.9171 44.0376 73.0788C43.9306 72.7129 43.9864 72.4455 44.2533 72.1782C44.7829 71.6477 45.2847 71.0895 45.8126 70.5572C46.1102 70.2571 46.1385 69.9697 45.911 69.612C44.0829 66.7383 42.8198 63.6286 42.0616 60.312C41.9843 59.9736 41.8006 59.8099 41.4819 59.6653C38.3595 58.2487 36.9158 54.1522 38.467 51.1415C38.6179 50.8486 38.7928 50.5392 39.0356 50.3287C39.4646 49.9569 39.5556 49.555 39.4508 49.011C38.8637 45.9634 38.9782 42.8754 38.98 39.7966C38.9815 37.1102 38.891 34.4208 39.0767 31.7382C39.3005 28.5044 40.5847 25.7141 42.7414 23.3131C44.7517 21.0752 47.1786 19.425 49.9309 18.2383C50.115 18.1589 50.298 18.0298 50.6166 18.1445C50.6166 19.6593 50.6166 21.2064 50.6166 22.8798C51.2881 22.5323 51.8371 22.2566 52.3773 21.9647C52.6235 21.8317 52.5812 21.5725 52.5825 21.3484C52.589 20.1819 52.6099 19.0148 52.5811 17.849C52.5684 17.3337 52.7278 17.0552 53.2399 16.8912C55.9181 16.0334 58.6478 15.8335 61.4338 16.1267C62.5569 16.245 63.6444 16.5009 64.735 16.7705C65.3056 16.9116 65.5627 17.1719 65.5321 17.807C65.4762 18.9709 65.5243 20.1396 65.5051 21.3058C65.4987 21.692 65.6258 21.9122 65.9959 22.0607C66.4524 22.2437 66.8793 22.5002 67.3724 22.7521C67.5127 22.0366 67.434 21.3758 67.4499 20.7214C67.4677 19.9927 67.4621 19.2633 67.4665 18.5342C67.4692 18.1005 67.5957 17.9164 68.0739 18.1266C72.2005 19.941 75.5533 22.6205 77.673 26.6804C78.7181 28.682 79.081 30.8535 79.1057 33.0768C79.148 36.8887 79.1483 40.7013 79.1238 44.5134C79.1143 45.9882 78.9607 47.4601 78.6899 48.9137C78.6002 49.3951 78.6764 49.7567 79.0378 50.1465C80.7124 51.9526 80.8306 54.9186 79.3426 57.2296C78.6324 58.3326 77.7477 59.2673 76.4766 59.7302C76.1159 59.8615 76.1061 60.1619 76.0504 60.4276C75.595 62.6001 74.8287 64.6609 73.8619 66.6529C73.7258 66.9334 73.5381 67.0916 73.2237 67.1793C70.6399 67.8999 69.1567 69.8388 69.1209 72.5407C69.1154 72.9597 69.0383 73.2973 68.7098 73.5943C66.6737 75.4355 64.5352 77.1119 61.8676 77.96C59.1607 78.8206 56.6032 78.3433 54.1502 77.059C52.4801 76.1846 50.9837 75.0613 49.5981 73.7855C49.4136 73.6156 49.2512 73.2743 48.9409 73.4344C48.6511 73.584 48.8651 73.8838 48.8779 74.1184C48.9174 74.8456 48.9796 75.5721 48.9939 76.2997C49.0029 76.7609 49.1573 77.1448 49.4164 77.5127C50.6275 79.2325 51.8212 80.9645 53.0451 82.675C53.2961 83.0257 53.3281 83.2941 53.0197 83.5959C52.9461 83.668 52.9036 83.774 52.8255 83.839C52.0244 84.5053 51.9194 85.2054 52.3455 86.2167C53.5405 89.0538 54.595 91.9501 55.7065 94.8224C55.7585 94.9567 55.8264 95.0848 55.9486 95.3492C56.0441 94.9709 56.1422 94.7122 56.1715 94.446C56.404 92.3399 56.615 90.2314 56.8557 88.1262C56.8913 87.8149 56.7717 87.6022 56.6078 87.3878C56.0895 86.7094 55.5715 86.0306 55.0383 85.364C54.7984 85.064 54.8207 84.8209 55.0751 84.5418C55.8607 83.6801 56.6381 82.8106 57.4051 81.9323C57.6585 81.6421 57.9415 81.516 58.3312 81.5298C58.8921 81.5496 59.4559 81.531 60.0166 81.4982C60.2975 81.4818 60.4928 81.5783 60.6712 81.7783C61.4753 82.6798 62.2791 83.5816 63.0955 84.4719C63.3805 84.7826 63.4113 85.0486 63.1291 85.3883C62.5976 86.0281 62.1047 86.6998 61.5832 87.3481C61.3313 87.6611 61.2476 87.9969 61.295 88.394C61.5458 90.4961 61.7871 92.5994 62.0253 94.703C62.0528 94.9459 62.0587 95.1879 62.27 95.4608C62.7959 94.1159 63.2989 92.824 63.8062 91.5337C64.5373 89.6742 65.2475 87.8059 66.0172 85.9624C66.3004 85.2843 66.2495 84.7775 65.7546 84.2136C64.8745 83.2106 64.9059 83.1847 65.6646 82.0861C66.7285 80.5455 67.7905 79.0037 68.8818 77.4212C69.1251 77.6819 69.0232 77.9617 69.0233 78.2046C69.0268 88.1416 69.0231 98.0786 69.0208 108.016C69.0207 108.766 69.0269 109.516 69.0243 110.265C69.0214 111.1 69.0184 111.103 68.1982 111.103C63.511 111.1 58.8238 111.091 54.1366 111.092C43.179 111.093 32.2214 111.099 21.2637 111.102C20.0119 111.103 19.9774 111.101 20.0054 109.823C20.1124 104.949 19.9233 100.071 20.1032 95.2023C20.2877 90.2088 22.2853 86.04 26.5088 83.1621C28.4719 81.8244 30.6699 80.8824 32.78 79.7969C35.1868 78.5586 37.6075 77.3472 40.0316 76.1431C40.9921 75.666 41.0365 75.4766 41.2858 76.7152C41.3145 76.8577 41.3579 76.9971 41.3999 77.1896ZM58.4711 72.7852C60.7863 72.9149 62.8139 72.1557 64.6029 70.737C67.4589 68.4721 69.3536 65.5213 70.5456 62.1151C72.158 57.5078 72.7278 52.7408 72.5761 47.8768C72.5699 47.6779 72.6294 47.4543 72.4316 47.2866C72.1396 47.2384 71.9292 47.4332 71.6976 47.5568C67.7262 49.6774 63.5481 50.1958 59.1863 49.1155C55.9093 48.3039 53.0645 46.6534 50.527 44.4572C50.1751 44.1527 49.8722 44.0961 49.4655 44.3056C48.3371 44.8867 47.1991 45.449 46.0634 46.0158C45.8267 46.1339 45.6573 46.2781 45.6455 46.5769C45.6199 47.2208 45.5398 47.8635 45.5336 48.5072C45.5081 51.1313 45.6969 53.7405 46.1537 56.3266C46.7467 59.6836 47.6282 62.9522 49.4244 65.8888C51.5181 69.3117 54.1487 72.0799 58.4711 72.7852ZM69.3967 38.9606C71.8718 40.0126 74.1247 41.4567 76.3767 43.0065C76.7654 41.0651 76.319 39.4877 74.9265 38.171C73.5233 36.8442 71.8586 35.9581 70.1028 35.2276C65.1371 33.1616 59.9683 32.6975 54.6787 33.4002C51.604 33.8087 48.6611 34.6919 45.94 36.2156C44.2336 37.1711 42.6289 38.2593 41.8196 40.152C41.417 41.0935 41.4687 42.0754 41.6506 43.1943C50.1665 36.7286 59.3091 34.9647 69.3967 38.9606ZM60.8208 28.4931C62.1219 27.7043 62.8048 26.5799 62.7082 25.0287C62.6176 23.5743 61.8495 22.5774 60.568 21.9807C59.1929 21.3404 57.8628 21.5425 56.7134 22.49C55.6234 23.3887 55.1855 24.5977 55.4772 26.0069C55.9833 28.452 58.6965 29.5876 60.8208 28.4931ZM71.1188 31.8516C71.7118 32.1685 72.3047 32.4853 72.9296 32.8192C73.1482 32.0333 73.0436 31.3016 73.0744 30.5796C73.177 28.1769 72.9986 25.8037 72.3001 23.4887C72.2233 23.2341 72.2221 22.9146 71.9781 22.7627C71.2986 22.3397 70.5981 21.9505 69.92 21.5562C69.5758 21.8931 69.6092 22.2222 69.7328 22.58C70.0447 23.483 70.3468 24.3885 70.5283 25.331C70.8972 27.248 70.7618 29.1834 70.7622 31.114C70.7622 31.3851 70.7067 31.6678 71.1188 31.8516ZM47.3182 27.6249C47.3891 26.1014 47.6486 24.6135 48.1977 23.1867C48.4099 22.6354 48.288 22.1902 47.8743 21.7479C47.4166 22.0331 46.9781 22.3058 46.5402 22.5795C46.4521 22.6346 46.3667 22.6939 46.2794 22.7503C46.0894 22.873 46.0344 23.0759 45.9623 23.2716C44.895 26.1704 44.9576 29.1858 45.0403 32.2031C45.042 32.2645 45.0599 32.326 45.0747 32.3864C45.1557 32.7173 45.324 32.8526 45.6572 32.6598C46.053 32.4307 46.4425 32.1852 46.8571 31.9958C47.2357 31.8229 47.3477 31.5763 47.3443 31.1665C47.3347 30.0246 47.1592 28.8834 47.3182 27.6249ZM60.4614 44.6605C62.9357 45.1708 65.3503 45.036 67.6915 44.0286C64.0402 43.6149 60.4096 43.147 56.7626 42.7286C57.7946 43.7339 59.0214 44.2974 60.4614 44.6605Z" fill="white"/>
<path d="M74.7921 94C74.7784 98.6028 74.7658 103.143 74.7504 107.683C74.7468 108.731 75.2197 109.219 76.2582 109.219C85.4437 109.218 94.6292 109.217 103.815 109.214C105.09 109.214 105.401 108.905 105.401 107.632C105.402 96.4885 105.403 85.3451 105.403 74.2017C105.403 74.0143 105.403 73.8266 105.395 73.6394C105.357 72.751 104.896 72.358 104.018 72.4608C103.896 72.4751 103.775 72.4884 103.564 72.5123C103.451 71.6697 103.63 70.8418 103.498 70.0296C103.367 69.2265 102.856 68.571 102.53 67.7245C104.124 67.749 105.578 67.4893 107.017 67.7709C108.791 68.1181 109.965 69.6783 109.965 71.5978C109.968 83.4286 109.967 95.2594 109.968 107.09C109.968 107.944 109.922 108.801 109.975 109.652C110.114 111.875 108.313 113.89 105.725 113.887C98.7892 113.877 91.8532 113.886 84.9172 113.886C81.4597 113.887 78.0021 113.891 74.5445 113.882C72.5946 113.877 71.106 112.882 70.5119 111.206C70.3293 110.691 70.2811 110.151 70.2808 109.608C70.2729 96.9437 70.2625 84.2797 70.2603 71.6158C70.2598 69.1679 71.6956 67.7352 74.1296 67.7026C75.2327 67.6878 76.3355 67.6562 77.4386 67.6402C77.6606 67.637 77.9018 67.595 78.1797 67.9012C77.0358 69.1812 76.7545 70.7525 77.0081 72.3995C76.6799 72.6443 76.4249 72.4316 76.1695 72.4175C75.2582 72.3674 74.831 72.7171 74.8263 73.63C74.8083 77.1499 74.8059 80.6699 74.8007 84.1899C74.7959 87.4391 74.7949 90.6883 74.7921 94Z" fill="white"/>
<path d="M85.1584 93.1109C87.083 91.0869 88.9768 89.0951 90.8759 87.1082C91.0963 86.8776 91.2542 86.6538 91.2882 86.3065C91.4132 85.029 92.0734 84.5365 93.3624 84.7467C93.6024 84.7858 93.7119 84.6846 93.8355 84.5462C94.1821 84.1579 94.5208 83.7625 94.8693 83.3759C95.4475 82.7345 96.1982 82.6242 96.9453 83.0636C98.4039 83.9213 98.616 85.3394 97.4646 86.5346C96.471 87.5661 96.4743 87.5623 97.5818 88.5284C97.751 88.6759 97.8879 88.7259 98.0691 88.5767C99.3122 87.5523 100.195 86.3201 100.121 84.6331C100.05 83.0053 99.228 81.7959 97.8123 81.0163C96.1048 80.0759 93.8884 80.6236 92.7626 82.2276C92.6193 82.4317 92.4905 82.6488 92.3273 82.8358C91.8311 83.4045 91.0273 83.5411 90.4703 83.1674C89.9439 82.8142 89.7768 82.0394 90.1284 81.377C90.6341 80.4245 91.3313 79.6083 92.2115 79.0009C94.4085 77.4848 96.7982 77.333 99.1325 78.5128C101.494 79.7064 102.736 81.7394 102.852 84.4429C102.951 86.7275 102.072 88.5722 100.498 90.142C100.202 90.4362 100.021 90.6943 100.32 91.0947C100.508 91.3476 100.418 91.6069 100.223 91.8335C99.2032 93.0153 98.2042 94.2179 97.0766 95.2988C96.5545 95.7993 95.7421 95.7468 95.258 95.2691C94.7639 94.7815 94.7655 93.9876 95.2713 93.4167C95.6855 92.9493 96.1026 92.484 96.5323 92.031C96.7605 91.7903 96.7898 91.6 96.5345 91.3473C96.1814 90.9979 95.8654 90.6109 95.5067 90.21C94.6012 90.9341 93.9964 91.7567 93.3229 92.5056C91.1377 94.9358 88.9788 97.3897 86.8143 99.8384C86.1939 100.54 85.5643 101.236 84.9833 101.97C84.3618 102.756 83.6319 103.344 82.6924 103.733C81.2509 104.33 79.8489 105.022 78.4279 105.669C78.1449 105.798 77.8447 105.957 77.5454 105.731C77.2412 105.501 77.3001 105.163 77.3916 104.868C77.9702 103 78.5927 101.147 79.327 99.3341C79.4252 99.0919 79.6187 98.8765 79.8039 98.683C81.5745 96.8327 83.3529 94.9897 85.1584 93.1109Z" fill="white"/>
<path d="M95.9581 66.0172C95.9544 67.644 95.9548 67.6574 97.5598 67.6175C99.1218 67.5787 100.468 68.0038 101.272 69.4378C102.649 71.8951 100.962 74.64 98.0592 74.6576C93.9577 74.6825 89.8559 74.6657 85.7543 74.6664C84.6716 74.6666 83.5889 74.668 82.5062 74.665C80.4047 74.6592 78.9062 73.3123 78.8481 71.3802C78.7857 69.2997 80.2355 67.7456 82.3658 67.6243C82.8225 67.5983 83.2831 67.5928 83.7393 67.62C84.2618 67.6512 84.4425 67.4414 84.4055 66.9235C84.285 65.2396 84.6587 63.6789 85.7872 62.3891C87.3719 60.5777 89.3922 59.9382 91.7003 60.5813C93.9696 61.2136 95.4093 62.7217 95.8408 65.0949C95.8927 65.3806 95.9192 65.6708 95.9581 66.0172ZM90.6073 65.1076C89.8179 64.977 89.3436 65.1578 89.0048 65.7422C88.683 66.2972 88.6917 66.8485 89.0719 67.3793C89.4553 67.9147 89.9763 68.1043 90.6051 67.9398C91.2148 67.7803 91.5485 67.3427 91.6307 66.736C91.7279 66.019 91.4261 65.535 90.6073 65.1076Z" fill="white"/>
<path d="M89.2723 101.099C89.9419 99.9854 90.9039 99.7932 92.1025 99.8237C95.2446 99.9037 98.3902 99.863 101.534 99.8392C102.081 99.8351 102.257 99.9833 102.236 100.542C102.192 101.686 102.213 102.832 102.23 103.977C102.236 104.336 102.145 104.516 101.749 104.515C96.8146 104.506 91.8798 104.506 86.9451 104.5C86.8475 104.5 86.7499 104.459 86.5022 104.403C87.3634 103.194 88.3718 102.217 89.2723 101.099Z" fill="white"/>
<path d="M77.6622 79.7561C77.6575 78.2685 77.6291 78.5016 78.8761 78.4973C82.31 78.4855 85.7439 78.4876 89.1778 78.4862C89.3398 78.4862 89.5109 78.4422 89.6618 78.5545C89.7519 78.7839 89.5733 78.8975 89.4471 79.0237C88.4281 80.0426 87.7334 81.2166 87.7018 82.7002C87.6921 83.1524 87.4116 83.1754 87.0702 83.1746C85.1763 83.1704 83.2823 83.165 81.3885 83.1789C80.3906 83.1863 79.3921 83.2151 78.3956 83.2677C77.8648 83.2957 77.6393 83.1197 77.6575 82.5643C77.6875 81.6496 77.6634 80.7332 77.6622 79.7561Z" fill="white"/>
<path d="M83.4799 91.5554C82.8714 92.4171 82.1275 92.7927 81.0733 92.6788C80.1477 92.5789 79.2023 92.6439 78.2663 92.665C77.8405 92.6745 77.6558 92.5158 77.6599 92.0894C77.6717 90.8617 77.67 89.6339 77.6742 88.4062C77.6752 88.1178 77.7658 87.9437 78.1092 87.9445C80.9183 87.9511 83.7274 87.9448 86.5365 87.9467C86.5877 87.9468 86.6389 87.9992 86.7318 88.05C85.6459 89.2209 84.5781 90.3722 83.4799 91.5554Z" fill="white"/>
<path d="M101.312 95.0426C101.006 95.0351 100.756 95.0297 100.507 95.0162C100.475 95.0145 100.445 94.9709 100.415 94.946C100.689 94.2958 101.571 93.28 102.234 92.8879C102.365 93.5248 102.374 94.1488 102.267 94.7455C102.178 95.2466 101.683 94.9696 101.312 95.0426Z" fill="white"/>
<path d="M55.4888 66.7111C54.6585 66.1824 54.0207 65.5521 53.7285 64.6297C53.6418 64.3558 53.6254 64.0831 53.8189 63.8616C54.0407 63.6077 54.2872 63.81 54.5024 63.8968C56.943 64.8816 59.389 64.8801 61.8502 63.9741C62.0873 63.8868 62.3736 63.6819 62.604 63.9315C62.8306 64.1769 62.7006 64.4818 62.5961 64.7548C62.023 66.2527 60.8149 66.9548 59.3415 67.2561C58.024 67.5255 56.7407 67.34 55.4888 66.7111Z" fill="white"/>
<path d="M55.5117 60.8766C55.3299 60.5258 55.3237 60.1979 55.3773 59.865C55.4831 59.2077 55.865 58.9173 56.5093 59.0755C57.638 59.3527 58.7525 59.389 59.8851 59.0881C60.7521 58.8578 61.3651 59.5211 61.1469 60.4069C61.075 60.6989 60.9272 60.9498 60.7018 61.1407C59.5214 62.1404 56.5174 62.2141 55.5117 60.8766Z" fill="white"/>
<path d="M141.32 113.4C139.053 113.4 136.84 112.987 134.68 112.16C132.52 111.307 130.6 110.107 128.92 108.56L132.24 104.4C133.867 105.84 135.427 106.88 136.92 107.52C138.44 108.16 140.04 108.48 141.72 108.48C142.893 108.48 143.907 108.347 144.76 108.08C145.613 107.787 146.267 107.373 146.72 106.84C147.2 106.307 147.44 105.68 147.44 104.96C147.44 104 147.093 103.267 146.4 102.76C145.707 102.227 144.52 101.813 142.84 101.52L137.28 100.56C134.907 100.16 133.093 99.32 131.84 98.04C130.613 96.76 130 95.1067 130 93.08C130 91.3467 130.44 89.84 131.32 88.56C132.227 87.28 133.493 86.3067 135.12 85.64C136.773 84.9467 138.733 84.6 141 84.6C143.053 84.6 145.093 84.9467 147.12 85.64C149.173 86.3333 150.987 87.2933 152.56 88.52L149.44 92.84C146.507 90.6 143.56 89.48 140.6 89.48C139.56 89.48 138.653 89.6133 137.88 89.88C137.107 90.1467 136.507 90.52 136.08 91C135.68 91.4533 135.48 92 135.48 92.64C135.48 93.4933 135.787 94.16 136.4 94.64C137.013 95.0933 138.04 95.44 139.48 95.68L144.76 96.56C147.56 97.0133 149.653 97.9067 151.04 99.24C152.427 100.547 153.12 102.28 153.12 104.44C153.12 106.253 152.64 107.84 151.68 109.2C150.72 110.533 149.347 111.573 147.56 112.32C145.8 113.04 143.72 113.4 141.32 113.4ZM156.554 113V85H178.074V90.04H162.354V96.44H172.714V101.32H162.354V107.96H178.234V113H156.554ZM182.336 113V85H196.016C197.909 85 199.576 85.3733 201.016 86.12C202.482 86.84 203.616 87.8533 204.416 89.16C205.242 90.4667 205.656 91.9733 205.656 93.68C205.656 95.4667 205.162 97.04 204.176 98.4C203.189 99.76 201.869 100.773 200.216 101.44L206.416 113H199.936L194.456 102.28H188.136V113H182.336ZM188.136 97.52H195.496C196.802 97.52 197.842 97.1733 198.616 96.48C199.416 95.7867 199.816 94.88 199.816 93.76C199.816 92.64 199.416 91.7333 198.616 91.04C197.842 90.3467 196.802 90 195.496 90H188.136V97.52ZM217.578 113L206.218 85H212.498L221.058 107.04L229.818 85H235.818L224.298 113H217.578ZM238.195 113V85H243.995V113H238.195ZM262.893 113.4C260.813 113.4 258.867 113.04 257.053 112.32C255.24 111.573 253.653 110.547 252.293 109.24C250.96 107.933 249.907 106.413 249.133 104.68C248.387 102.92 248.013 101.027 248.013 99C248.013 96.9467 248.387 95.0533 249.133 93.32C249.907 91.56 250.973 90.0267 252.333 88.72C253.693 87.4133 255.267 86.4 257.053 85.68C258.867 84.9333 260.813 84.56 262.893 84.56C264.44 84.56 265.933 84.7733 267.373 85.2C268.813 85.6267 270.147 86.2267 271.373 87C272.627 87.7733 273.693 88.7067 274.573 89.8L270.653 93.68C269.64 92.4267 268.467 91.48 267.133 90.84C265.827 90.2 264.413 89.88 262.893 89.88C261.64 89.88 260.467 90.12 259.373 90.6C258.28 91.0533 257.333 91.6933 256.533 92.52C255.733 93.32 255.107 94.28 254.653 95.4C254.2 96.4933 253.973 97.6933 253.973 99C253.973 100.28 254.2 101.48 254.653 102.6C255.107 103.693 255.747 104.653 256.573 105.48C257.4 106.28 258.36 106.907 259.453 107.36C260.573 107.813 261.787 108.04 263.093 108.04C264.56 108.04 265.933 107.733 267.213 107.12C268.493 106.507 269.627 105.627 270.613 104.48L274.413 108.24C273.533 109.307 272.48 110.227 271.253 111C270.027 111.773 268.693 112.373 267.253 112.8C265.84 113.2 264.387 113.4 262.893 113.4ZM277.804 113V85H299.324V90.04H283.604V96.44H293.964V101.32H283.604V107.96H299.484V113H277.804ZM313.586 113.4C311.319 113.4 309.106 112.987 306.946 112.16C304.786 111.307 302.866 110.107 301.186 108.56L304.506 104.4C306.132 105.84 307.692 106.88 309.186 107.52C310.706 108.16 312.306 108.48 313.986 108.48C315.159 108.48 316.172 108.347 317.026 108.08C317.879 107.787 318.532 107.373 318.986 106.84C319.466 106.307 319.706 105.68 319.706 104.96C319.706 104 319.359 103.267 318.666 102.76C317.972 102.227 316.786 101.813 315.106 101.52L309.546 100.56C307.172 100.16 305.359 99.32 304.106 98.04C302.879 96.76 302.266 95.1067 302.266 93.08C302.266 91.3467 302.706 89.84 303.586 88.56C304.492 87.28 305.759 86.3067 307.386 85.64C309.039 84.9467 310.999 84.6 313.266 84.6C315.319 84.6 317.359 84.9467 319.386 85.64C321.439 86.3333 323.252 87.2933 324.826 88.52L321.706 92.84C318.772 90.6 315.826 89.48 312.866 89.48C311.826 89.48 310.919 89.6133 310.146 89.88C309.372 90.1467 308.772 90.52 308.346 91C307.946 91.4533 307.746 92 307.746 92.64C307.746 93.4933 308.052 94.16 308.666 94.64C309.279 95.0933 310.306 95.44 311.746 95.68L317.026 96.56C319.826 97.0133 321.919 97.9067 323.306 99.24C324.692 100.547 325.386 102.28 325.386 104.44C325.386 106.253 324.906 107.84 323.946 109.2C322.986 110.533 321.612 111.573 319.826 112.32C318.066 113.04 315.986 113.4 313.586 113.4Z" fill="white"/>
<path d="M146.824 68.48C144.104 68.48 141.448 67.984 138.856 66.992C136.264 65.968 133.96 64.528 131.944 62.672L135.928 57.68C137.88 59.408 139.752 60.656 141.544 61.424C143.368 62.192 145.288 62.576 147.304 62.576C148.712 62.576 149.928 62.416 150.952 62.096C151.976 61.744 152.76 61.248 153.304 60.608C153.88 59.968 154.168 59.216 154.168 58.352C154.168 57.2 153.752 56.32 152.92 55.712C152.088 55.072 150.664 54.576 148.648 54.224L141.976 53.072C139.128 52.592 136.952 51.584 135.448 50.048C133.976 48.512 133.24 46.528 133.24 44.096C133.24 42.016 133.768 40.208 134.824 38.672C135.912 37.136 137.432 35.968 139.384 35.168C141.368 34.336 143.72 33.92 146.44 33.92C148.904 33.92 151.352 34.336 153.784 35.168C156.248 36 158.424 37.152 160.312 38.624L156.568 43.808C153.048 41.12 149.512 39.776 145.96 39.776C144.712 39.776 143.624 39.936 142.696 40.256C141.768 40.576 141.048 41.024 140.536 41.6C140.056 42.144 139.816 42.8 139.816 43.568C139.816 44.592 140.184 45.392 140.92 45.968C141.656 46.512 142.888 46.928 144.616 47.216L150.952 48.272C154.312 48.816 156.824 49.888 158.488 51.488C160.152 53.056 160.984 55.136 160.984 57.728C160.984 59.904 160.408 61.808 159.256 63.44C158.104 65.04 156.456 66.288 154.312 67.184C152.2 68.048 149.704 68.48 146.824 68.48ZM170.865 68V34.4H179.793L189.009 52.544L198.225 34.4H207.153V68H200.577V43.28L188.913 65.6L177.297 43.184V68H170.865ZM215.737 68L229.561 34.4H237.577L251.257 68H243.721L240.313 59.168H226.441L222.985 68H215.737ZM228.601 53.6H238.201L233.401 41.216L228.601 53.6ZM259.87 68V34.4H276.286C278.558 34.4 280.558 34.848 282.286 35.744C284.046 36.608 285.406 37.824 286.366 39.392C287.358 40.96 287.854 42.768 287.854 44.816C287.854 46.96 287.262 48.848 286.078 50.48C284.894 52.112 283.31 53.328 281.326 54.128L288.766 68H280.99L274.414 55.136H266.83V68H259.87ZM266.83 49.424H275.662C277.23 49.424 278.478 49.008 279.406 48.176C280.366 47.344 280.846 46.256 280.846 44.912C280.846 43.568 280.366 42.48 279.406 41.648C278.478 40.816 277.23 40.4 275.662 40.4H266.83V49.424ZM307.048 68V40.544H295.72V34.4H325.288V40.544H314.008V68H307.048Z" fill="white"/>
</svg>
